<svg width="1957" height="684" viewBox="0 0 1957 684" fill="none" xmlns="http://www.w3.org/2000/svg">
<path d="M0 390.578L19.1623 407.583C38.4265 424.454 76.7511 458.463 115.178 472.923C153.604 487.384 191.929 482.564 230.355 492.07C268.782 501.711 307.106 525.812 345.533 511.351C383.959 496.757 422.284 443.734 460.71 409.993C499.137 376.251 537.461 362.058 575.888 378.929C614.314 395.934 652.639 444.136 691.066 446.412C729.492 448.555 767.817 404.905 806.243 385.49C844.67 366.075 882.994 370.896 921.217 387.9C959.44 404.905 997.56 433.826 1035.78 441.19C1074.01 448.555 1112.33 434.362 1150.76 407.717C1189.18 381.205 1227.51 342.376 1265.93 344.652C1304.36 346.795 1342.69 390.176 1381.11 399.683C1419.54 409.323 1457.86 385.222 1496.29 356.435C1534.72 327.648 1573.04 294.174 1611.47 308.634C1649.89 323.229 1688.22 385.624 1726.64 388.168C1765.07 390.578 1803.4 333.003 1841.82 308.902C1880.25 284.801 1918.57 294.174 1937.84 298.86L1957 303.546V69.2303L1937.84 57.1798C1918.57 45.1293 1880.25 21.0282 1841.82 28.3924C1803.4 35.7566 1765.07 74.5861 1726.64 74.5861C1688.22 74.5861 1649.89 35.7566 1611.47 21.296C1573.04 6.70142 1534.72 16.6096 1496.29 14.3334C1457.86 12.0572 1419.54 -2.13564 1381.11 0.274464C1342.69 2.68457 1304.36 21.9654 1265.93 31.472C1227.51 41.1124 1189.18 41.1124 1150.76 48.2088C1112.33 55.4392 1074.01 69.632 1035.78 91.323C997.56 113.014 959.44 141.935 921.217 122.788C882.994 103.641 844.67 36.1583 806.243 29.0619C767.817 21.9654 729.492 74.9878 691.066 103.775C652.639 132.563 614.314 137.115 575.888 120.11C537.461 103.106 499.137 64.8118 460.71 48.0749C422.284 31.3381 383.959 36.1583 345.533 65.2135C307.106 94.2687 268.782 147.291 230.355 149.835C191.929 152.245 153.604 104.043 115.178 87.0384C76.7511 70.1676 38.4265 84.3605 19.1623 91.5908L0 98.6872V390.578Z" fill="#1295CB"/>
<path d="M0 505.667L19.1623 527.473C38.4265 549.414 76.7511 593.027 115.178 605.067C153.604 617.108 191.929 597.576 230.355 614.298C268.782 631.021 307.106 683.999 345.533 683.999C383.959 683.999 422.284 631.021 460.71 592.358C499.137 553.829 537.462 529.748 575.888 546.738C614.315 563.595 652.639 621.656 691.066 621.656C729.492 621.656 767.817 563.595 806.243 542.056C844.67 520.383 882.994 535.099 921.217 542.457C959.44 549.815 997.56 549.815 1035.78 542.457C1074.01 535.099 1117.57 539.577 1156 515.497C1194.43 491.416 1221 487.205 1258 515.497C1289 542.457 1323.5 550.446 1368 550.446C1428.5 550.446 1457.86 520.784 1496.29 487.205C1534.72 453.492 1573.04 414.695 1611.47 426.735C1649.89 438.776 1688.22 501.653 1726.64 511.286C1765.07 520.784 1803.4 477.171 1841.82 457.773C1880.25 438.374 1918.57 443.19 1937.84 445.732L1957 448.14V300.98L1937.84 296.297C1918.57 291.615 1880.25 282.25 1841.82 306.331C1803.4 330.412 1765.07 387.938 1726.64 385.53C1688.22 382.988 1649.89 320.646 1611.47 306.063C1573.04 291.615 1534.72 325.06 1496.29 353.824C1457.86 382.587 1419.54 406.668 1381.11 397.035C1342.69 387.537 1304.36 344.191 1265.93 342.051C1227.51 339.777 1189.18 378.573 1150.76 405.062C1112.33 431.685 1074.01 445.866 1035.78 438.508C997.56 431.15 959.44 402.253 921.217 385.263C882.994 368.272 844.67 363.456 806.243 382.855C767.817 402.253 729.492 445.866 691.066 443.726C652.639 441.451 614.315 393.29 575.888 376.299C537.462 359.443 499.137 373.624 460.71 407.337C422.284 441.05 383.959 494.028 345.533 508.61C307.106 523.059 268.782 498.978 230.355 489.345C191.929 479.847 153.604 484.663 115.178 470.215C76.7511 455.766 38.4265 421.785 19.1623 404.929L0 387.938V505.667Z" fill="#1295CB"/>
<path d="M0 375.861L19.1623 387.932C38.4265 399.907 76.7511 424.049 115.178 434.314C153.604 444.579 191.929 441.158 230.355 447.906C268.782 454.749 307.106 471.858 345.533 461.593C383.959 451.232 422.284 413.594 460.71 389.642C499.137 365.691 537.461 355.616 575.888 367.592C614.314 379.662 652.639 413.879 691.066 415.495C729.492 417.016 767.817 386.031 806.243 372.249C844.67 358.467 882.994 361.889 921.217 373.96C959.44 386.031 997.56 406.561 1035.78 411.788C1074.01 417.016 1112.33 406.941 1150.76 388.027C1189.18 369.207 1227.51 341.644 1265.93 343.26C1304.36 344.78 1342.69 375.575 1381.11 382.324C1419.54 389.167 1457.86 372.059 1496.29 351.624C1534.72 331.189 1573.04 307.427 1611.47 317.692C1649.89 328.052 1688.22 372.344 1726.64 374.15C1765.07 375.861 1803.4 334.991 1841.82 317.882C1880.25 300.774 1918.57 307.427 1937.84 310.754L1957 314.08V147.749L1937.84 139.195C1918.57 130.641 1880.25 113.532 1841.82 118.76C1803.4 123.988 1765.07 151.551 1726.64 151.551C1688.22 151.551 1649.89 123.988 1611.47 113.723C1573.04 103.363 1534.72 110.396 1496.29 108.78C1457.86 107.164 1419.54 97.0895 1381.11 98.8003C1342.69 100.511 1304.36 114.198 1265.93 120.946C1227.51 127.789 1189.18 127.789 1150.76 132.827C1112.33 137.959 1074.01 148.034 1035.78 163.432C997.56 178.829 959.44 199.359 921.217 185.768C882.994 172.176 844.67 124.273 806.243 119.235C767.817 114.198 729.492 151.836 691.066 172.271C652.639 192.706 614.314 195.938 575.888 183.867C537.461 171.796 499.137 144.613 460.71 132.732C422.284 120.851 383.959 124.273 345.533 144.898C307.106 165.523 268.782 203.161 230.355 204.967C191.929 206.678 153.604 172.461 115.178 160.39C76.7511 148.415 38.4265 158.489 19.1623 163.622L0 168.659V375.861Z" fill="#0A7099"/>
<path d="M0 432.915L19.1623 459.229C38.4265 485.704 76.7511 538.332 115.178 552.861C153.604 567.39 191.929 543.821 230.355 564C268.782 584.179 307.106 648.107 345.533 648.107C383.959 648.107 422.284 584.179 460.71 537.525C499.137 491.032 537.461 461.973 575.888 482.476C614.315 502.816 652.639 572.879 691.066 572.879C729.492 572.879 767.817 502.816 806.243 476.825C844.67 450.673 882.994 468.431 921.217 477.31C959.44 486.189 996.592 489.669 1035.78 489.67C1075.5 489.67 1129.07 513.6 1167.5 484.542C1205.93 455.484 1217.57 465.398 1256 479.927C1294.43 494.456 1302.5 504.539 1358.5 496.848C1441 477.31 1457.86 451.157 1496.29 410.637C1534.72 369.956 1573.04 323.14 1611.47 337.669C1649.89 352.198 1688.22 428.072 1726.64 439.695C1765.07 451.157 1803.4 398.53 1841.82 375.122C1880.25 351.714 1918.57 357.525 1937.84 360.593L1957 363.498V185.92L1937.84 180.27C1918.57 174.62 1880.25 163.32 1841.82 192.378C1803.4 221.436 1765.07 290.853 1726.64 287.947C1688.22 284.88 1649.89 209.651 1611.47 192.055C1573.04 174.62 1534.72 214.979 1496.29 249.687C1457.86 284.395 1419.54 313.454 1381.11 301.83C1342.69 290.369 1304.36 238.064 1265.93 235.481C1227.51 232.736 1189.18 279.552 1150.76 311.516C1112.33 343.642 1074.01 360.754 1035.78 351.875C997.56 342.996 959.44 308.126 921.217 287.624C882.994 267.122 844.67 261.31 806.243 284.718C767.817 308.126 729.492 360.754 691.066 358.171C652.639 355.427 614.315 297.31 575.888 276.808C537.461 256.467 499.137 273.579 460.71 314.261C422.284 354.942 383.959 418.87 345.533 436.467C307.106 453.902 268.782 424.843 230.355 413.22C191.929 401.758 153.604 407.57 115.178 390.135C76.7511 372.7 38.4265 331.696 19.1623 311.355L0 290.853V432.915Z" fill="#0A7099"/>
</svg>
