<svg width="1971" height="1010" viewBox="0 0 1971 1010" fill="none" xmlns="http://www.w3.org/2000/svg">
<path d="M0 576.731L19.2994 601.84C38.7014 626.752 77.3002 676.97 116.002 698.323C154.703 719.676 193.302 712.558 232.003 726.595C270.705 740.831 309.303 776.419 348.005 755.066C386.706 733.515 425.305 655.222 464.006 605.399C502.708 555.576 541.306 534.619 580.008 559.53C618.709 584.639 657.308 655.815 696.009 659.176C734.711 662.34 773.309 597.886 812.011 569.218C850.712 540.55 889.311 547.668 927.807 572.777C966.303 597.886 1004.7 640.591 1043.19 651.466C1081.69 662.34 1120.29 641.382 1158.99 602.038C1197.69 562.891 1236.29 505.555 1274.99 508.916C1313.69 512.08 1352.29 576.138 1390.99 590.175C1429.69 604.41 1468.29 568.823 1506.99 526.315C1545.7 483.807 1584.29 434.38 1623 455.732C1661.7 477.283 1700.3 569.416 1739 573.172C1777.7 576.731 1816.3 491.716 1855 456.128C1893.7 420.54 1932.3 434.38 1951.7 441.299L1971 448.219V102.226L1951.7 84.4322C1932.3 66.6383 1893.7 31.0504 1855 41.9245C1816.3 52.7985 1777.7 110.135 1739 110.135C1700.3 110.135 1661.7 52.7985 1623 31.4458C1584.29 9.89537 1545.7 24.5259 1506.99 21.1649C1468.29 17.8038 1429.69 -3.15351 1390.99 0.405276C1352.29 3.96406 1313.69 32.4344 1274.99 46.4718C1236.29 60.7069 1197.69 60.707 1158.99 71.1856C1120.29 81.862 1081.69 102.819 1043.19 134.848C1004.7 166.877 966.303 209.583 927.807 181.31C889.311 153.038 850.712 53.3917 812.011 42.913C773.309 32.4344 734.711 110.728 696.009 153.235C657.308 195.743 618.709 202.465 580.008 177.356C541.306 152.247 502.708 95.7017 464.006 70.9879C425.305 46.2741 386.706 53.3917 348.005 96.2948C309.303 139.198 270.705 217.491 232.003 221.248C193.302 224.807 154.703 153.631 116.002 128.522C77.3002 103.61 38.7014 124.567 19.2994 135.244L0 145.722V576.731Z" fill="#1295CB"/>
<path d="M0 746.673L19.2994 778.872C38.7014 811.27 77.3002 875.669 116.002 893.448C154.703 911.227 193.302 882.386 232.003 907.079C270.705 931.772 309.303 1010 348.005 1010C386.706 1010 425.305 931.772 464.006 874.681C502.708 817.789 541.306 782.231 580.008 807.319C618.709 832.209 657.308 917.944 696.009 917.944C734.711 917.944 773.309 832.209 812.011 800.405C850.712 768.402 889.311 790.132 927.807 800.997C966.303 811.862 1004.7 811.862 1043.19 800.997C1081.69 790.132 1120.29 768.402 1158.99 732.844C1197.69 697.286 1236.29 647.9 1274.99 665.679C1313.69 683.458 1352.29 768.402 1390.99 789.737C1429.69 811.27 1468.29 768.995 1506.99 719.411C1545.7 669.63 1584.29 612.342 1623 630.121C1661.7 647.9 1700.3 740.746 1739 754.969C1777.7 768.995 1816.3 704.596 1855 675.952C1893.7 647.308 1932.3 654.419 1951.7 658.173L1971 661.728V444.429L1951.7 437.515C1932.3 430.601 1893.7 416.773 1855 452.331C1816.3 487.889 1777.7 572.833 1739 569.278C1700.3 565.524 1661.7 473.468 1623 451.936C1584.29 430.601 1545.7 479.987 1506.99 522.46C1468.29 564.932 1429.69 600.49 1390.99 586.266C1352.29 572.241 1313.69 508.236 1274.99 505.076C1236.29 501.717 1197.69 559.005 1158.99 598.119C1120.29 637.43 1081.69 658.37 1043.19 647.505C1004.7 636.64 966.303 593.971 927.807 568.883C889.311 543.794 850.712 536.683 812.011 565.327C773.309 593.971 734.711 658.37 696.009 655.209C657.308 651.851 618.709 580.735 580.008 555.647C541.306 530.756 502.708 551.696 464.006 601.477C425.305 651.259 386.706 729.486 348.005 751.019C309.303 772.353 270.705 736.795 232.003 722.572C193.302 708.546 154.703 715.658 116.002 694.323C77.3002 672.988 38.7014 622.812 19.2994 597.922L0 572.833V746.673Z" fill="#1295CB"/>
<path d="M0 561.024L19.2994 580.634C38.7014 600.089 77.3002 639.309 116.002 655.985C154.703 672.661 193.302 667.103 232.003 678.066C270.705 689.183 309.303 716.977 348.005 700.3C386.706 683.47 425.305 622.324 464.006 583.413C502.708 544.502 541.306 528.135 580.008 547.59C618.709 567.2 657.308 622.787 696.009 625.412C734.711 627.883 773.309 577.546 812.011 555.156C850.712 532.767 889.311 538.326 927.807 557.936C966.303 577.546 1004.7 610.898 1043.19 619.39C1081.69 627.883 1120.29 611.515 1158.99 580.788C1197.69 550.215 1236.29 505.437 1274.99 508.062C1313.69 510.532 1352.29 560.561 1390.99 571.524C1429.69 582.641 1468.29 554.848 1506.99 521.65C1545.7 488.452 1584.29 449.85 1623 466.526C1661.7 483.356 1700.3 555.311 1739 558.245C1777.7 561.024 1816.3 494.628 1855 466.835C1893.7 439.041 1932.3 449.85 1951.7 455.254L1971 460.658V190.443L1951.7 176.547C1932.3 162.65 1893.7 134.856 1855 143.349C1816.3 151.841 1777.7 196.62 1739 196.62C1700.3 196.62 1661.7 151.841 1623 135.165C1584.29 118.335 1545.7 129.761 1506.99 127.136C1468.29 124.511 1429.69 108.144 1390.99 110.923C1352.29 113.702 1313.69 135.937 1274.99 146.9C1236.29 158.018 1197.69 158.018 1158.99 166.201C1120.29 174.539 1081.69 190.907 1043.19 215.921C1004.7 240.935 966.303 274.287 927.807 252.207C889.311 230.126 850.712 152.304 812.011 144.121C773.309 135.937 734.711 197.083 696.009 230.281C657.308 263.479 618.709 268.729 580.008 249.119C541.306 229.509 502.708 185.348 464.006 166.047C425.305 146.746 386.706 152.304 348.005 185.811C309.303 219.318 270.705 280.464 232.003 283.397C193.302 286.177 154.703 230.59 116.002 210.98C77.3002 191.524 38.7014 207.892 19.2994 216.23L0 224.413V561.024Z" fill="#0A7099"/>
<path d="M0 693.742L19.2994 718.89C38.7014 744.191 77.3002 794.486 116.002 808.371C154.703 822.257 193.302 799.732 232.003 819.017C270.705 838.302 309.303 899.396 348.005 899.396C386.706 899.396 425.305 838.302 464.006 793.715C502.708 749.283 541.306 721.512 580.008 741.106C618.709 760.545 657.308 827.502 696.009 827.502C734.711 827.502 773.309 760.545 812.011 735.706C850.712 710.713 889.311 727.684 927.807 736.169C966.303 744.654 1004.7 744.654 1043.19 736.169C1081.69 727.684 1120.29 710.713 1158.99 682.943C1197.69 655.172 1236.29 616.603 1274.99 630.488C1313.69 644.373 1352.29 710.713 1390.99 727.375C1429.69 744.191 1468.29 711.176 1506.99 672.452C1545.7 633.573 1584.29 588.832 1623 602.718C1661.7 616.603 1700.3 689.114 1739 700.222C1777.7 711.176 1816.3 660.881 1855 638.51C1893.7 616.14 1932.3 621.694 1951.7 624.625L1971 627.402V457.695L1951.7 452.296C1932.3 446.896 1893.7 436.096 1855 463.867C1816.3 491.637 1777.7 557.977 1739 555.2C1700.3 552.268 1661.7 480.374 1623 463.558C1584.29 446.896 1545.7 485.466 1506.99 518.636C1468.29 551.806 1429.69 579.576 1390.99 568.468C1352.29 557.514 1313.69 507.527 1274.99 505.059C1236.29 502.436 1197.69 547.177 1158.99 577.724C1120.29 608.426 1081.69 624.779 1043.19 616.294C1004.7 607.809 966.303 574.485 927.807 554.891C889.311 535.298 850.712 529.744 812.011 552.114C773.309 574.485 734.711 624.78 696.009 622.311C657.308 619.688 618.709 564.148 580.008 544.554C541.306 525.115 502.708 541.469 464.006 580.347C425.305 619.225 386.706 680.32 348.005 697.136C309.303 713.798 270.705 686.028 232.003 674.92C193.302 663.966 154.703 669.52 116.002 652.858C77.3002 636.196 38.7014 597.009 19.2994 577.57L0 557.977V693.742Z" fill="#0A7099"/>
</svg>
